<svg xmlns="http://www.w3.org/2000/svg" xmlns:xlink="http://www.w3.org/1999/xlink" version="1.1" width="1280" height="720" viewBox="0 0 1280 720"><defs><linearGradient id="ggrad1" x1="0.5" y1="0" x2="0.5" y2="1"><stop offset="0" stop-color="#0A0E27" stop-opacity="0.65"/><stop offset="1" stop-color="#0A0E27" stop-opacity="0.78"/></linearGradient><linearGradient id="ggrad2" x1="0" y1="0.5" x2="1" y2="0.5"><stop offset="0" stop-color="#5B8DEF"/><stop offset="0.5" stop-color="#A26BFA"/><stop offset="1" stop-color="#3DDDFC"/></linearGradient><linearGradient id="ggrad3" x1="0" y1="0.5" x2="1" y2="0.5"><stop offset="0" stop-color="#5B8DEF" stop-opacity="0.55"/><stop offset="1" stop-color="#5B8DEF" stop-opacity="0.18"/></linearGradient><linearGradient id="ggrad4" x1="0.5" y1="0" x2="0.5" y2="1"><stop offset="0" stop-color="#1A2150" stop-opacity="0.78"/><stop offset="1" stop-color="#1A2150" stop-opacity="0.45"/></linearGradient><linearGradient id="ggrad5" x1="0" y1="0.5" x2="1" y2="0.5"><stop offset="0" stop-color="#FFFFFF" stop-opacity="0"/><stop offset="0.5" stop-color="#FFFFFF" stop-opacity="0.3"/><stop offset="1" stop-color="#FFFFFF" stop-opacity="0"/></linearGradient><linearGradient id="ggrad6" x1="0.5" y1="0" x2="0.5" y2="1"><stop offset="0" stop-color="#1A2150" stop-opacity="0.78"/><stop offset="1" stop-color="#1A2150" stop-opacity="0.45"/></linearGradient><linearGradient id="ggrad7" x1="0" y1="0.5" x2="1" y2="0.5"><stop offset="0" stop-color="#FFFFFF" stop-opacity="0"/><stop offset="0.5" stop-color="#FFFFFF" stop-opacity="0.3"/><stop offset="1" stop-color="#FFFFFF" stop-opacity="0"/></linearGradient><linearGradient id="ggrad8" x1="0.5" y1="0" x2="0.5" y2="1"><stop offset="0" stop-color="#1A2150" stop-opacity="0.78"/><stop offset="1" stop-color="#1A2150" stop-opacity="0.45"/></linearGradient><linearGradient id="ggrad9" x1="0" y1="0.5" x2="1" y2="0.5"><stop offset="0" stop-color="#FFFFFF" stop-opacity="0"/><stop offset="0.5" stop-color="#FFFFFF" stop-opacity="0.3"/><stop offset="1" stop-color="#FFFFFF" stop-opacity="0"/></linearGradient><linearGradient id="ggrad10" x1="0" y1="0.5" x2="1" y2="0.5"><stop offset="0" stop-color="#A26BFA" stop-opacity="0.55"/><stop offset="1" stop-color="#A26BFA" stop-opacity="0.18"/></linearGradient><linearGradient id="ggrad11" x1="0.5" y1="0" x2="0.5" y2="1"><stop offset="0" stop-color="#1A2150" stop-opacity="0.78"/><stop offset="1" stop-color="#1A2150" stop-opacity="0.45"/></linearGradient><linearGradient id="ggrad12" x1="0" y1="0.5" x2="1" y2="0.5"><stop offset="0" stop-color="#FFFFFF" stop-opacity="0"/><stop offset="0.5" stop-color="#FFFFFF" stop-opacity="0.3"/><stop offset="1" stop-color="#FFFFFF" stop-opacity="0"/></linearGradient><linearGradient id="ggrad13" x1="0.5" y1="0" x2="0.5" y2="1"><stop offset="0" stop-color="#1A2150" stop-opacity="0.78"/><stop offset="1" stop-color="#1A2150" stop-opacity="0.45"/></linearGradient><linearGradient id="ggrad14" x1="0" y1="0.5" x2="1" y2="0.5"><stop offset="0" stop-color="#FFFFFF" stop-opacity="0"/><stop offset="0.5" stop-color="#FFFFFF" stop-opacity="0.3"/><stop offset="1" stop-color="#FFFFFF" stop-opacity="0"/></linearGradient><linearGradient id="ggrad15" x1="0.5" y1="0" x2="0.5" y2="1"><stop offset="0" stop-color="#1A2150" stop-opacity="0.78"/><stop offset="1" stop-color="#1A2150" stop-opacity="0.45"/></linearGradient><linearGradient id="ggrad16" x1="0" y1="0.5" x2="1" y2="0.5"><stop offset="0" stop-color="#FFFFFF" stop-opacity="0"/><stop offset="0.5" stop-color="#FFFFFF" stop-opacity="0.3"/><stop offset="1" stop-color="#FFFFFF" stop-opacity="0"/></linearGradient><linearGradient id="ggrad17" x1="0" y1="0.5" x2="1" y2="0.5"><stop offset="0" stop-color="#3DDDFC" stop-opacity="0.55"/><stop offset="1" stop-color="#3DDDFC" stop-opacity="0.18"/></linearGradient><linearGradient id="ggrad18" x1="0.5" y1="0" x2="0.5" y2="1"><stop offset="0" stop-color="#1A2150" stop-opacity="0.78"/><stop offset="1" stop-color="#1A2150" stop-opacity="0.45"/></linearGradient><linearGradient id="ggrad19" x1="0" y1="0.5" x2="1" y2="0.5"><stop offset="0" stop-color="#FFFFFF" stop-opacity="0"/><stop offset="0.5" stop-color="#FFFFFF" stop-opacity="0.3"/><stop offset="1" stop-color="#FFFFFF" stop-opacity="0"/></linearGradient><linearGradient id="ggrad20" x1="0.5" y1="0" x2="0.5" y2="1"><stop offset="0" stop-color="#1A2150" stop-opacity="0.78"/><stop offset="1" stop-color="#1A2150" stop-opacity="0.45"/></linearGradient><linearGradient id="ggrad21" x1="0" y1="0.5" x2="1" y2="0.5"><stop offset="0" stop-color="#FFFFFF" stop-opacity="0"/><stop offset="0.5" stop-color="#FFFFFF" stop-opacity="0.3"/><stop offset="1" stop-color="#FFFFFF" stop-opacity="0"/></linearGradient><linearGradient id="ggrad22" x1="0.5" y1="0" x2="0.5" y2="1"><stop offset="0" stop-color="#1A2150" stop-opacity="0.78"/><stop offset="1" stop-color="#1A2150" stop-opacity="0.45"/></linearGradient><linearGradient id="ggrad23" x1="0" y1="0.5" x2="1" y2="0.5"><stop offset="0" stop-color="#FFFFFF" stop-opacity="0"/><stop offset="0.5" stop-color="#FFFFFF" stop-opacity="0.3"/><stop offset="1" stop-color="#FFFFFF" stop-opacity="0"/></linearGradient><linearGradient id="ggrad24" x1="0" y1="0.5" x2="1" y2="0.5"><stop offset="0" stop-color="#4ADE80" stop-opacity="0.55"/><stop offset="1" stop-color="#4ADE80" stop-opacity="0.18"/></linearGradient><linearGradient id="ggrad25" x1="0.5" y1="0" x2="0.5" y2="1"><stop offset="0" stop-color="#1A2150" stop-opacity="0.78"/><stop offset="1" stop-color="#1A2150" stop-opacity="0.45"/></linearGradient><linearGradient id="ggrad26" x1="0" y1="0.5" x2="1" y2="0.5"><stop offset="0" stop-color="#FFFFFF" stop-opacity="0"/><stop offset="0.5" stop-color="#FFFFFF" stop-opacity="0.3"/><stop offset="1" stop-color="#FFFFFF" stop-opacity="0"/></linearGradient><linearGradient id="ggrad27" x1="0.5" y1="0" x2="0.5" y2="1"><stop offset="0" stop-color="#1A2150" stop-opacity="0.78"/><stop offset="1" stop-color="#1A2150" stop-opacity="0.45"/></linearGradient><linearGradient id="ggrad28" x1="0" y1="0.5" x2="1" y2="0.5"><stop offset="0" stop-color="#FFFFFF" stop-opacity="0"/><stop offset="0.5" stop-color="#FFFFFF" stop-opacity="0.3"/><stop offset="1" stop-color="#FFFFFF" stop-opacity="0"/></linearGradient><linearGradient id="ggrad29" x1="0.5" y1="0" x2="0.5" y2="1"><stop offset="0" stop-color="#1A2150" stop-opacity="0.78"/><stop offset="1" stop-color="#1A2150" stop-opacity="0.45"/></linearGradient><linearGradient id="ggrad30" x1="0" y1="0.5" x2="1" y2="0.5"><stop offset="0" stop-color="#FFFFFF" stop-opacity="0"/><stop offset="0.5" stop-color="#FFFFFF" stop-opacity="0.3"/><stop offset="1" stop-color="#FFFFFF" stop-opacity="0"/></linearGradient></defs><rect x="0" y="0" width="1280" height="720" fill="#FFFFFF"/>
<g id="shape-5" data-name="Group 5">
<g id="shape-2" data-name="Rectangle 2">
<rect x="0" y="0" width="1280" height="720" fill="#0A0E27" stroke="none"/>
</g>
<g id="shape-3" data-name="Image 3">
<image href="../assets/image_8117dc4322c61d7d.png" x="0" y="0" width="1280" height="720" preserveAspectRatio="none"/>
</g>
<g id="shape-4" data-name="Rectangle 4">
<rect x="0" y="0" width="1280" height="720" fill="url(#ggrad1)" stroke="none"/>
</g>
</g>
<g id="shape-9" data-name="Group 9">
<g id="shape-6" data-name="Rectangle 6">
<rect x="60" y="50" width="6" height="32" rx="3" ry="3" fill="url(#ggrad2)" stroke="none"/>
</g>
<g id="shape-7" data-name="TextBox 7">
<rect x="76.6" y="47.1" width="337.29" height="54.4" fill="none" stroke="none"/>
<text x="76.6" y="76" text-anchor="start" xml:space="preserve" font-family="&quot;Segoe UI&quot;, &quot;Microsoft YaHei&quot;, sans-serif" font-size="34" fill="#E8ECFF" font-weight="bold"><tspan fill="#E8ECFF" font-size="34" font-weight="bold">Agent 的四层骨架</tspan></text>
</g>
<g id="shape-8" data-name="TextBox 8">
<rect x="78.6" y="96.1" width="356.96" height="22.4" fill="none" stroke="none"/>
<text x="78.6" y="108" text-anchor="start" xml:space="preserve" font-family="&quot;Segoe UI&quot;, &quot;Microsoft YaHei&quot;, sans-serif" font-size="14" fill="#A8B0D0" font-weight="bold"><tspan fill="#A8B0D0" font-size="14" font-weight="bold">PERCEPTION · REASONING · ACTION · MEMORY</tspan></text>
</g>
</g>
<g id="shape-34" data-name="Group 34">
<g id="shape-10" data-name="Rectangle 10">
<rect x="60" y="140" width="170" height="120" rx="14" ry="14" fill="url(#ggrad3)" stroke-width="1" stroke="#5B8DEF" stroke-opacity="0.55"/>
</g>
<g id="shape-13" data-name="Group 13">
<g id="shape-11" data-name="Freeform 11">
<path d="M 100 166.75 C 87.5 166.75 82.5 178 82.5 178 C 82.5 178 87.5 189.25 100 189.25 C 112.5 189.25 117.5 178 117.5 178 C 117.5 178 112.5 166.75 100 166.75 Z M 100 184.25 C 96.55 184.25 93.75 181.45 93.75 178 C 93.75 174.55 96.55 171.75 100 171.75 C 103.45 171.75 106.25 174.55 106.25 178 C 106.25 181.45 103.45 184.25 100 184.25 Z" fill="#3DDDFC" fill-opacity="0.2" stroke="none"/>
</g>
<g id="shape-12" data-name="Freeform 12">
<path d="M 118.64 177.49 C 118.59 177.37 117.26 174.43 114.32 171.49 C 110.4 167.57 105.45 165.5 100 165.5 C 94.55 165.5 89.6 167.57 85.68 171.49 C 82.74 174.43 81.41 177.38 81.36 177.49 C 81.21 177.82 81.21 178.19 81.36 178.51 C 81.41 178.63 82.74 181.57 85.68 184.51 C 89.6 188.43 94.55 190.5 100 190.5 C 105.45 190.5 110.4 188.43 114.32 184.51 C 117.26 181.57 118.59 178.63 118.64 178.51 C 118.79 178.19 118.79 177.82 118.64 177.49 Z M 100 188 C 95.19 188 90.99 186.25 87.51 182.8 C 86.08 181.39 84.87 179.77 83.91 178 C 84.87 176.23 86.08 174.61 87.51 173.2 C 90.99 169.75 95.19 168 100 168 C 104.81 168 109.01 169.75 112.49 173.2 C 113.92 174.61 115.14 176.23 116.1 178 C 114.98 180.1 110.07 188 100 188 Z M 100 170.5 C 95.86 170.5 92.5 173.86 92.5 178 C 92.5 182.14 95.86 185.5 100 185.5 C 104.14 185.5 107.5 182.14 107.5 178 C 107.5 173.86 104.14 170.5 100 170.5 Z M 100 183 C 97.24 183 95 180.76 95 178 C 95 175.24 97.24 173 100 173 C 102.76 173 105 175.24 105 178 C 105 180.76 102.76 183 100 183 Z" fill="#3DDDFC" stroke="none"/>
</g>
</g>
<g id="shape-14" data-name="TextBox 14">
<rect x="78.7" y="208.95" width="119.55" height="20.8" fill="none" stroke="none"/>
<text x="78.7" y="220" text-anchor="start" xml:space="preserve" font-family="&quot;Segoe UI&quot;, &quot;Microsoft YaHei&quot;, sans-serif" font-size="13" fill="#3DDDFC" font-weight="bold"><tspan fill="#3DDDFC" font-size="13" font-weight="bold">L1 · PERCEPTION</tspan></text>
</g>
<g id="shape-15" data-name="TextBox 15">
<rect x="77.8" y="227.3" width="84.1" height="35.2" fill="none" stroke="none"/>
<text x="77.8" y="246" text-anchor="start" xml:space="preserve" font-family="&quot;Segoe UI&quot;, &quot;Microsoft YaHei&quot;, sans-serif" font-size="22" fill="#E8ECFF" font-weight="bold"><tspan fill="#E8ECFF" font-size="22" font-weight="bold">感知层</tspan></text>
</g>
<g id="shape-21" data-name="Group 21">
<g id="shape-16" data-name="Rectangle 16">
<rect x="246" y="140" width="320" height="120" rx="14" ry="14" fill="url(#ggrad4)" stroke-width="1" stroke="#FFFFFF" stroke-opacity="0.14"/>
</g>
<g id="shape-17" data-name="Rectangle 17">
<rect x="264" y="141" width="284" height="1" fill="url(#ggrad5)" stroke="none"/>
</g>
<g id="shape-18" data-name="TextBox 18">
<rect x="264.2" y="162.7" width="90.54" height="28.8" fill="none" stroke="none"/>
<text x="264.2" y="178" text-anchor="start" xml:space="preserve" font-family="&quot;Segoe UI&quot;, &quot;Microsoft YaHei&quot;, sans-serif" font-size="18" fill="#E8ECFF" font-weight="bold"><tspan fill="#E8ECFF" font-size="18" font-weight="bold">输入解析</tspan></text>
</g>
<g id="shape-19" data-name="TextBox 19">
<rect x="264.6" y="194.1" width="179.9" height="22.4" fill="none" stroke="none"/>
<text x="264.6" y="206" text-anchor="start" xml:space="preserve" font-family="&quot;Segoe UI&quot;, &quot;Microsoft YaHei&quot;, sans-serif" font-size="14" fill="#A8B0D0"><tspan fill="#A8B0D0" font-size="14">用户意图分类、槽位抽取</tspan></text>
</g>
<g id="shape-20" data-name="TextBox 20">
<rect x="264.6" y="216.1" width="163.8" height="22.4" fill="none" stroke="none"/>
<text x="264.6" y="228" text-anchor="start" xml:space="preserve" font-family="&quot;Segoe UI&quot;, &quot;Microsoft YaHei&quot;, sans-serif" font-size="14" fill="#A8B0D0"><tspan fill="#A8B0D0" font-size="14">语言识别、敏感词过滤</tspan></text>
</g>
</g>
<g id="shape-27" data-name="Group 27">
<g id="shape-22" data-name="Rectangle 22">
<rect x="578" y="140" width="320" height="120" rx="14" ry="14" fill="url(#ggrad6)" stroke-width="1" stroke="#FFFFFF" stroke-opacity="0.14"/>
</g>
<g id="shape-23" data-name="Rectangle 23">
<rect x="596" y="141" width="284" height="1" fill="url(#ggrad7)" stroke="none"/>
</g>
<g id="shape-24" data-name="TextBox 24">
<rect x="596.2" y="162.7" width="112.27" height="28.8" fill="none" stroke="none"/>
<text x="596.2" y="178" text-anchor="start" xml:space="preserve" font-family="&quot;Segoe UI&quot;, &quot;Microsoft YaHei&quot;, sans-serif" font-size="18" fill="#E8ECFF" font-weight="bold"><tspan fill="#E8ECFF" font-size="18" font-weight="bold">多模态融合</tspan></text>
</g>
<g id="shape-25" data-name="TextBox 25">
<rect x="596.6" y="194.1" width="187.14" height="22.4" fill="none" stroke="none"/>
<text x="596.6" y="206" text-anchor="start" xml:space="preserve" font-family="&quot;Segoe UI&quot;, &quot;Microsoft YaHei&quot;, sans-serif" font-size="14" fill="#A8B0D0"><tspan fill="#A8B0D0" font-size="14">文本 · 图像 · 表格 · 音频</tspan></text>
</g>
<g id="shape-26" data-name="TextBox 26">
<rect x="596.6" y="216.1" width="196" height="22.4" fill="none" stroke="none"/>
<text x="596.6" y="228" text-anchor="start" xml:space="preserve" font-family="&quot;Segoe UI&quot;, &quot;Microsoft YaHei&quot;, sans-serif" font-size="14" fill="#A8B0D0"><tspan fill="#A8B0D0" font-size="14">统一为可推理的结构化输入</tspan></text>
</g>
</g>
<g id="shape-33" data-name="Group 33">
<g id="shape-28" data-name="Rectangle 28">
<rect x="910" y="140" width="310" height="120" rx="14" ry="14" fill="url(#ggrad8)" stroke-width="1" stroke="#FFFFFF" stroke-opacity="0.14"/>
</g>
<g id="shape-29" data-name="Rectangle 29">
<rect x="928" y="141" width="274" height="1" fill="url(#ggrad9)" stroke="none"/>
</g>
<g id="shape-30" data-name="TextBox 30">
<rect x="928.2" y="162.7" width="155.74" height="28.8" fill="none" stroke="none"/>
<text x="928.2" y="178" text-anchor="start" xml:space="preserve" font-family="&quot;Segoe UI&quot;, &quot;Microsoft YaHei&quot;, sans-serif" font-size="18" fill="#E8ECFF" font-weight="bold"><tspan fill="#E8ECFF" font-size="18" font-weight="bold">上下文窗口管理</tspan></text>
</g>
<g id="shape-31" data-name="TextBox 31">
<rect x="928.6" y="194.1" width="179.9" height="22.4" fill="none" stroke="none"/>
<text x="928.6" y="206" text-anchor="start" xml:space="preserve" font-family="&quot;Segoe UI&quot;, &quot;Microsoft YaHei&quot;, sans-serif" font-size="14" fill="#A8B0D0"><tspan fill="#A8B0D0" font-size="14">动态截断、关键信息前置</tspan></text>
</g>
<g id="shape-32" data-name="TextBox 32">
<rect x="928.6" y="216.1" width="149.31" height="22.4" fill="none" stroke="none"/>
<text x="928.6" y="228" text-anchor="start" xml:space="preserve" font-family="&quot;Segoe UI&quot;, &quot;Microsoft YaHei&quot;, sans-serif" font-size="14" fill="#A8B0D0"><tspan fill="#A8B0D0" font-size="14">应对长 prompt 退化</tspan></text>
</g>
</g>
</g>
<g id="shape-59" data-name="Group 59">
<g id="shape-35" data-name="Rectangle 35">
<rect x="60" y="272" width="170" height="120" rx="14" ry="14" fill="url(#ggrad10)" stroke-width="1" stroke="#A26BFA" stroke-opacity="0.55"/>
</g>
<g id="shape-38" data-name="Group 38">
<g id="shape-36" data-name="Freeform 36">
<path d="M 117.5 309.38 C 117.5 312.55 115.5 315.39 112.5 316.45 L 112.5 316.45 L 112.5 317.5 C 112.5 320.95 109.7 323.75 106.25 323.75 C 102.8 323.75 100 320.95 100 317.5 C 100 320.95 97.2 323.75 93.75 323.75 C 90.3 323.75 87.5 320.95 87.5 317.5 L 87.5 316.45 L 87.5 316.45 C 84.5 315.39 82.49 312.56 82.49 309.38 C 82.49 306.19 84.5 303.36 87.5 302.3 L 87.5 301.25 C 87.5 297.8 90.3 295 93.75 295 C 97.2 295 100 297.8 100 301.25 C 100 297.8 102.8 295 106.25 295 C 109.7 295 112.5 297.8 112.5 301.25 L 112.5 302.3 C 115.5 303.36 117.5 306.2 117.5 309.38 Z" fill="#A26BFA" fill-opacity="0.2" stroke="none"/>
</g>
<g id="shape-37" data-name="Freeform 37">
<path d="M 118.75 309.38 C 118.75 306 116.8 302.92 113.75 301.47 L 113.75 301.25 C 113.75 297.94 111.58 295.03 108.41 294.07 C 105.25 293.12 101.83 294.36 100 297.11 C 98.17 294.36 94.75 293.12 91.59 294.07 C 88.42 295.03 86.25 297.94 86.25 301.25 L 86.25 301.47 C 83.2 302.92 81.25 305.99 81.25 309.37 C 81.25 312.75 83.2 315.83 86.25 317.28 L 86.25 317.5 C 86.25 320.81 88.42 323.72 91.59 324.67 C 94.75 325.63 98.17 324.39 100 321.64 C 101.83 324.39 105.25 325.63 108.41 324.67 C 111.58 323.72 113.75 320.81 113.75 317.5 L 113.75 317.28 C 116.8 315.83 118.75 312.75 118.75 309.38 Z M 93.75 322.5 C 91.2 322.5 89.05 320.58 88.78 318.04 C 89.18 318.1 89.59 318.12 90 318.12 L 91.25 318.12 C 91.94 318.12 92.5 317.57 92.5 316.87 C 92.5 316.18 91.94 315.62 91.25 315.62 L 90 315.62 C 86.95 315.63 84.35 313.43 83.83 310.43 C 83.32 307.43 85.04 304.49 87.92 303.48 C 88.42 303.3 88.75 302.83 88.75 302.3 L 88.75 301.25 C 88.75 298.49 90.99 296.25 93.75 296.25 C 96.51 296.25 98.75 298.49 98.75 301.25 L 98.75 311.92 C 97.38 310.68 95.6 310 93.75 310 C 93.06 310 92.5 310.56 92.5 311.25 C 92.5 311.94 93.06 312.5 93.75 312.5 C 96.51 312.5 98.75 314.74 98.75 317.5 C 98.75 320.26 96.51 322.5 93.75 322.5 Z M 110 315.62 L 108.75 315.62 C 108.06 315.62 107.5 316.18 107.5 316.87 C 107.5 317.57 108.06 318.12 108.75 318.12 L 110 318.12 C 110.41 318.12 110.82 318.1 111.22 318.04 C 110.93 320.71 108.58 322.68 105.89 322.49 C 103.21 322.29 101.16 320.01 101.25 317.32 C 101.35 314.63 103.56 312.5 106.25 312.5 C 106.94 312.5 107.5 311.94 107.5 311.25 C 107.5 310.56 106.94 310 106.25 310 C 104.4 310 102.62 310.68 101.25 311.92 L 101.25 301.25 C 101.25 298.49 103.49 296.25 106.25 296.25 C 109.01 296.25 111.25 298.49 111.25 301.25 L 111.25 302.3 C 111.25 302.83 111.58 303.3 112.08 303.48 C 114.96 304.49 116.68 307.43 116.17 310.43 C 115.65 313.43 113.05 315.63 110 315.62 Z M 112.5 307.5 C 112.5 308.19 111.94 308.75 111.25 308.75 L 110.62 308.75 C 107.52 308.75 105 306.23 105 303.12 L 105 302.5 C 105 301.81 105.56 301.25 106.25 301.25 C 106.94 301.25 107.5 301.81 107.5 302.5 L 107.5 303.12 C 107.5 304.85 108.9 306.25 110.62 306.25 L 111.25 306.25 C 111.94 306.25 112.5 306.81 112.5 307.5 Z M 89.38 308.75 L 88.75 308.75 C 88.06 308.75 87.5 308.19 87.5 307.5 C 87.5 306.81 88.06 306.25 88.75 306.25 L 89.38 306.25 C 91.1 306.25 92.5 304.85 92.5 303.12 L 92.5 302.5 C 92.5 301.81 93.06 301.25 93.75 301.25 C 94.44 301.25 95 301.81 95 302.5 L 95 303.12 C 95 306.23 92.48 308.75 89.38 308.75 Z" fill="#A26BFA" stroke="none"/>
</g>
</g>
<g id="shape-39" data-name="TextBox 39">
<rect x="78.7" y="340.95" width="114.84" height="20.8" fill="none" stroke="none"/>
<text x="78.7" y="352" text-anchor="start" xml:space="preserve" font-family="&quot;Segoe UI&quot;, &quot;Microsoft YaHei&quot;, sans-serif" font-size="13" fill="#A26BFA" font-weight="bold"><tspan fill="#A26BFA" font-size="13" font-weight="bold">L2 · REASONING</tspan></text>
</g>
<g id="shape-40" data-name="TextBox 40">
<rect x="77.8" y="359.3" width="84.1" height="35.2" fill="none" stroke="none"/>
<text x="77.8" y="378" text-anchor="start" xml:space="preserve" font-family="&quot;Segoe UI&quot;, &quot;Microsoft YaHei&quot;, sans-serif" font-size="22" fill="#E8ECFF" font-weight="bold"><tspan fill="#E8ECFF" font-size="22" font-weight="bold">推理层</tspan></text>
</g>
<g id="shape-46" data-name="Group 46">
<g id="shape-41" data-name="Rectangle 41">
<rect x="246" y="272" width="320" height="120" rx="14" ry="14" fill="url(#ggrad11)" stroke-width="1" stroke="#FFFFFF" stroke-opacity="0.14"/>
</g>
<g id="shape-42" data-name="Rectangle 42">
<rect x="264" y="273" width="284" height="1" fill="url(#ggrad12)" stroke="none"/>
</g>
<g id="shape-43" data-name="TextBox 43">
<rect x="264.2" y="294.7" width="130.75" height="28.8" fill="none" stroke="none"/>
<text x="264.2" y="310" text-anchor="start" xml:space="preserve" font-family="&quot;Segoe UI&quot;, &quot;Microsoft YaHei&quot;, sans-serif" font-size="18" fill="#E8ECFF" font-weight="bold"><tspan fill="#E8ECFF" font-size="18" font-weight="bold">Plan / ReAct</tspan></text>
</g>
<g id="shape-44" data-name="TextBox 44">
<rect x="264.6" y="326.1" width="158.97" height="22.4" fill="none" stroke="none"/>
<text x="264.6" y="338" text-anchor="start" xml:space="preserve" font-family="&quot;Segoe UI&quot;, &quot;Microsoft YaHei&quot;, sans-serif" font-size="14" fill="#A8B0D0"><tspan fill="#A8B0D0" font-size="14">先拆解,再推理 → 行动</tspan></text>
</g>
<g id="shape-45" data-name="TextBox 45">
<rect x="264.6" y="348.1" width="163.8" height="22.4" fill="none" stroke="none"/>
<text x="264.6" y="360" text-anchor="start" xml:space="preserve" font-family="&quot;Segoe UI&quot;, &quot;Microsoft YaHei&quot;, sans-serif" font-size="14" fill="#A8B0D0"><tspan fill="#A8B0D0" font-size="14">观察结果再决定下一步</tspan></text>
</g>
</g>
<g id="shape-52" data-name="Group 52">
<g id="shape-47" data-name="Rectangle 47">
<rect x="578" y="272" width="320" height="120" rx="14" ry="14" fill="url(#ggrad13)" stroke-width="1" stroke="#FFFFFF" stroke-opacity="0.14"/>
</g>
<g id="shape-48" data-name="Rectangle 48">
<rect x="596" y="273" width="284" height="1" fill="url(#ggrad14)" stroke="none"/>
</g>
<g id="shape-49" data-name="TextBox 49">
<rect x="596.2" y="294.7" width="182.91" height="28.8" fill="none" stroke="none"/>
<text x="596.2" y="310" text-anchor="start" xml:space="preserve" font-family="&quot;Segoe UI&quot;, &quot;Microsoft YaHei&quot;, sans-serif" font-size="18" fill="#E8ECFF" font-weight="bold"><tspan fill="#E8ECFF" font-size="18" font-weight="bold">Tree-of-Thought</tspan></text>
</g>
<g id="shape-50" data-name="TextBox 50">
<rect x="596.6" y="326.1" width="166.22" height="22.4" fill="none" stroke="none"/>
<text x="596.6" y="338" text-anchor="start" xml:space="preserve" font-family="&quot;Segoe UI&quot;, &quot;Microsoft YaHei&quot;, sans-serif" font-size="14" fill="#A8B0D0"><tspan fill="#A8B0D0" font-size="14">多路径展开 · 评估剪枝</tspan></text>
</g>
<g id="shape-51" data-name="TextBox 51">
<rect x="596.6" y="348.1" width="200.83" height="22.4" fill="none" stroke="none"/>
<text x="596.6" y="360" text-anchor="start" xml:space="preserve" font-family="&quot;Segoe UI&quot;, &quot;Microsoft YaHei&quot;, sans-serif" font-size="14" fill="#A8B0D0"><tspan fill="#A8B0D0" font-size="14">适合搜索 · 规划 · 推理任务</tspan></text>
</g>
</g>
<g id="shape-58" data-name="Group 58">
<g id="shape-53" data-name="Rectangle 53">
<rect x="910" y="272" width="310" height="120" rx="14" ry="14" fill="url(#ggrad15)" stroke-width="1" stroke="#FFFFFF" stroke-opacity="0.14"/>
</g>
<g id="shape-54" data-name="Rectangle 54">
<rect x="928" y="273" width="274" height="1" fill="url(#ggrad16)" stroke="none"/>
</g>
<g id="shape-55" data-name="TextBox 55">
<rect x="928.2" y="294.7" width="112.27" height="28.8" fill="none" stroke="none"/>
<text x="928.2" y="310" text-anchor="start" xml:space="preserve" font-family="&quot;Segoe UI&quot;, &quot;Microsoft YaHei&quot;, sans-serif" font-size="18" fill="#E8ECFF" font-weight="bold"><tspan fill="#E8ECFF" font-size="18" font-weight="bold">Reflection</tspan></text>
</g>
<g id="shape-56" data-name="TextBox 56">
<rect x="928.6" y="326.1" width="168.63" height="22.4" fill="none" stroke="none"/>
<text x="928.6" y="338" text-anchor="start" xml:space="preserve" font-family="&quot;Segoe UI&quot;, &quot;Microsoft YaHei&quot;, sans-serif" font-size="14" fill="#A8B0D0"><tspan fill="#A8B0D0" font-size="14">自检 · 自纠 · 自我评分</tspan></text>
</g>
<g id="shape-57" data-name="TextBox 57">
<rect x="928.6" y="348.1" width="196" height="22.4" fill="none" stroke="none"/>
<text x="928.6" y="360" text-anchor="start" xml:space="preserve" font-family="&quot;Segoe UI&quot;, &quot;Microsoft YaHei&quot;, sans-serif" font-size="14" fill="#A8B0D0"><tspan fill="#A8B0D0" font-size="14">配合终止条件防止无限循环</tspan></text>
</g>
</g>
</g>
<g id="shape-84" data-name="Group 84">
<g id="shape-60" data-name="Rectangle 60">
<rect x="60" y="404" width="170" height="120" rx="14" ry="14" fill="url(#ggrad17)" stroke-width="1" stroke="#3DDDFC" stroke-opacity="0.55"/>
</g>
<g id="shape-63" data-name="Group 63">
<g id="shape-61" data-name="Freeform 61">
<path d="M 95 459.5 L 97.5 447 L 87.5 443.25 L 105 424.5 L 102.5 437 L 112.5 440.75 Z" fill="#3DDDFC" fill-opacity="0.2" stroke="none"/>
</g>
<g id="shape-62" data-name="Freeform 62">
<path d="M 113.72 440.46 C 113.62 440.06 113.33 439.73 112.94 439.58 L 103.93 436.2 L 106.22 424.75 C 106.33 424.2 106.06 423.65 105.57 423.39 C 105.07 423.14 104.47 423.24 104.09 423.65 L 86.59 442.4 C 86.3 442.71 86.18 443.13 86.27 443.54 C 86.37 443.95 86.66 444.29 87.05 444.43 L 96.06 447.81 L 93.78 459.25 C 93.67 459.8 93.94 460.35 94.43 460.61 C 94.93 460.86 95.53 460.76 95.91 460.35 L 113.41 441.6 C 113.7 441.29 113.81 440.87 113.72 440.46 Z M 97.09 455.44 L 98.73 447.25 C 98.85 446.65 98.52 446.05 97.94 445.84 L 89.69 442.74 L 102.91 428.57 L 101.28 436.75 C 101.15 437.35 101.48 437.95 102.06 438.17 L 110.31 441.26 Z" fill="#3DDDFC" stroke="none"/>
</g>
</g>
<g id="shape-64" data-name="TextBox 64">
<rect x="78.7" y="472.95" width="88.94" height="20.8" fill="none" stroke="none"/>
<text x="78.7" y="484" text-anchor="start" xml:space="preserve" font-family="&quot;Segoe UI&quot;, &quot;Microsoft YaHei&quot;, sans-serif" font-size="13" fill="#3DDDFC" font-weight="bold"><tspan fill="#3DDDFC" font-size="13" font-weight="bold">L3 · ACTION</tspan></text>
</g>
<g id="shape-65" data-name="TextBox 65">
<rect x="77.8" y="491.3" width="84.1" height="35.2" fill="none" stroke="none"/>
<text x="77.8" y="510" text-anchor="start" xml:space="preserve" font-family="&quot;Segoe UI&quot;, &quot;Microsoft YaHei&quot;, sans-serif" font-size="22" fill="#E8ECFF" font-weight="bold"><tspan fill="#E8ECFF" font-size="22" font-weight="bold">行动层</tspan></text>
</g>
<g id="shape-71" data-name="Group 71">
<g id="shape-66" data-name="Rectangle 66">
<rect x="246" y="404" width="320" height="120" rx="14" ry="14" fill="url(#ggrad18)" stroke-width="1" stroke="#FFFFFF" stroke-opacity="0.14"/>
</g>
<g id="shape-67" data-name="Rectangle 67">
<rect x="264" y="405" width="284" height="1" fill="url(#ggrad19)" stroke="none"/>
</g>
<g id="shape-68" data-name="TextBox 68">
<rect x="264.2" y="426.7" width="90.54" height="28.8" fill="none" stroke="none"/>
<text x="264.2" y="442" text-anchor="start" xml:space="preserve" font-family="&quot;Segoe UI&quot;, &quot;Microsoft YaHei&quot;, sans-serif" font-size="18" fill="#E8ECFF" font-weight="bold"><tspan fill="#E8ECFF" font-size="18" font-weight="bold">工具调用</tspan></text>
</g>
<g id="shape-69" data-name="TextBox 69">
<rect x="264.6" y="458.1" width="171.85" height="22.4" fill="none" stroke="none"/>
<text x="264.6" y="470" text-anchor="start" xml:space="preserve" font-family="&quot;Segoe UI&quot;, &quot;Microsoft YaHei&quot;, sans-serif" font-size="14" fill="#A8B0D0"><tspan fill="#A8B0D0" font-size="14">JSON schema 参数生成</tspan></text>
</g>
<g id="shape-70" data-name="TextBox 70">
<rect x="264.6" y="480.1" width="168.63" height="22.4" fill="none" stroke="none"/>
<text x="264.6" y="492" text-anchor="start" xml:space="preserve" font-family="&quot;Segoe UI&quot;, &quot;Microsoft YaHei&quot;, sans-serif" font-size="14" fill="#A8B0D0"><tspan fill="#A8B0D0" font-size="14">超时 · 重试 · 鉴权治理</tspan></text>
</g>
</g>
<g id="shape-77" data-name="Group 77">
<g id="shape-72" data-name="Rectangle 72">
<rect x="578" y="404" width="320" height="120" rx="14" ry="14" fill="url(#ggrad20)" stroke-width="1" stroke="#FFFFFF" stroke-opacity="0.14"/>
</g>
<g id="shape-73" data-name="Rectangle 73">
<rect x="596" y="405" width="284" height="1" fill="url(#ggrad21)" stroke="none"/>
</g>
<g id="shape-74" data-name="TextBox 74">
<rect x="596.2" y="426.7" width="90.54" height="28.8" fill="none" stroke="none"/>
<text x="596.2" y="442" text-anchor="start" xml:space="preserve" font-family="&quot;Segoe UI&quot;, &quot;Microsoft YaHei&quot;, sans-serif" font-size="18" fill="#E8ECFF" font-weight="bold"><tspan fill="#E8ECFF" font-size="18" font-weight="bold">函数执行</tspan></text>
</g>
<g id="shape-75" data-name="TextBox 75">
<rect x="596.6" y="458.1" width="162.19" height="22.4" fill="none" stroke="none"/>
<text x="596.6" y="470" text-anchor="start" xml:space="preserve" font-family="&quot;Segoe UI&quot;, &quot;Microsoft YaHei&quot;, sans-serif" font-size="14" fill="#A8B0D0"><tspan fill="#A8B0D0" font-size="14">沙盒 / 子进程 / WASM</tspan></text>
</g>
<g id="shape-76" data-name="TextBox 76">
<rect x="596.6" y="480.1" width="163.8" height="22.4" fill="none" stroke="none"/>
<text x="596.6" y="492" text-anchor="start" xml:space="preserve" font-family="&quot;Segoe UI&quot;, &quot;Microsoft YaHei&quot;, sans-serif" font-size="14" fill="#A8B0D0"><tspan fill="#A8B0D0" font-size="14">代码生成必走隔离环境</tspan></text>
</g>
</g>
<g id="shape-83" data-name="Group 83">
<g id="shape-78" data-name="Rectangle 78">
<rect x="910" y="404" width="310" height="120" rx="14" ry="14" fill="url(#ggrad22)" stroke-width="1" stroke="#FFFFFF" stroke-opacity="0.14"/>
</g>
<g id="shape-79" data-name="Rectangle 79">
<rect x="928" y="405" width="274" height="1" fill="url(#ggrad23)" stroke="none"/>
</g>
<g id="shape-80" data-name="TextBox 80">
<rect x="928.2" y="426.7" width="84.02" height="28.8" fill="none" stroke="none"/>
<text x="928.2" y="442" text-anchor="start" xml:space="preserve" font-family="&quot;Segoe UI&quot;, &quot;Microsoft YaHei&quot;, sans-serif" font-size="18" fill="#E8ECFF" font-weight="bold"><tspan fill="#E8ECFF" font-size="18" font-weight="bold">API 编排</tspan></text>
</g>
<g id="shape-81" data-name="TextBox 81">
<rect x="928.6" y="458.1" width="168.63" height="22.4" fill="none" stroke="none"/>
<text x="928.6" y="470" text-anchor="start" xml:space="preserve" font-family="&quot;Segoe UI&quot;, &quot;Microsoft YaHei&quot;, sans-serif" font-size="14" fill="#A8B0D0"><tspan fill="#A8B0D0" font-size="14">幂等 · 顺序 · 事务边界</tspan></text>
</g>
<g id="shape-82" data-name="TextBox 82">
<rect x="928.6" y="480.1" width="151.73" height="22.4" fill="none" stroke="none"/>
<text x="928.6" y="492" text-anchor="start" xml:space="preserve" font-family="&quot;Segoe UI&quot;, &quot;Microsoft YaHei&quot;, sans-serif" font-size="14" fill="#A8B0D0"><tspan fill="#A8B0D0" font-size="14">幂等 key 防重复执行</tspan></text>
</g>
</g>
</g>
<g id="shape-109" data-name="Group 109">
<g id="shape-85" data-name="Rectangle 85">
<rect x="60" y="536" width="170" height="120" rx="14" ry="14" fill="url(#ggrad24)" stroke-width="1" stroke="#4ADE80" stroke-opacity="0.5"/>
</g>
<g id="shape-88" data-name="Group 88">
<g id="shape-86" data-name="Freeform 86">
<path d="M 113.75 566.5 C 113.75 570.64 107.59 574 100 574 C 92.41 574 86.25 570.64 86.25 566.5 C 86.25 562.36 92.41 559 100 559 C 107.59 559 113.75 562.36 113.75 566.5 Z" fill="#4ADE80" fill-opacity="0.2" stroke="none"/>
</g>
<g id="shape-87" data-name="Freeform 87">
<path d="M 100 557.75 C 91.59 557.75 85 561.59 85 566.5 L 85 581.5 C 85 586.41 91.59 590.25 100 590.25 C 108.41 590.25 115 586.41 115 581.5 L 115 566.5 C 115 561.59 108.41 557.75 100 557.75 Z M 112.5 574 C 112.5 575.5 111.27 577.04 109.12 578.21 C 106.71 579.52 103.47 580.25 100 580.25 C 96.53 580.25 93.29 579.52 90.88 578.21 C 88.73 577.04 87.5 575.5 87.5 574 L 87.5 571.4 C 90.17 573.74 94.72 575.25 100 575.25 C 105.28 575.25 109.83 573.74 112.5 571.4 Z M 90.88 562.29 C 93.29 560.98 96.53 560.25 100 560.25 C 103.47 560.25 106.71 560.98 109.12 562.29 C 111.27 563.46 112.5 565 112.5 566.5 C 112.5 568 111.27 569.54 109.12 570.71 C 106.71 572.02 103.47 572.75 100 572.75 C 96.53 572.75 93.29 572.02 90.88 570.71 C 88.73 569.54 87.5 568 87.5 566.5 C 87.5 565 88.73 563.46 90.88 562.29 Z M 109.12 585.71 C 106.71 587.02 103.47 587.75 100 587.75 C 96.53 587.75 93.29 587.02 90.88 585.71 C 88.73 584.54 87.5 583 87.5 581.5 L 87.5 578.9 C 90.17 581.24 94.72 582.75 100 582.75 C 105.28 582.75 109.83 581.24 112.5 578.9 L 112.5 581.5 C 112.5 583 111.27 584.54 109.12 585.71 Z" fill="#4ADE80" stroke="none"/>
</g>
</g>
<g id="shape-89" data-name="TextBox 89">
<rect x="78.7" y="604.95" width="99.14" height="20.8" fill="none" stroke="none"/>
<text x="78.7" y="616" text-anchor="start" xml:space="preserve" font-family="&quot;Segoe UI&quot;, &quot;Microsoft YaHei&quot;, sans-serif" font-size="13" fill="#4ADE80" font-weight="bold"><tspan fill="#4ADE80" font-size="13" font-weight="bold">L4 · MEMORY</tspan></text>
</g>
<g id="shape-90" data-name="TextBox 90">
<rect x="77.8" y="623.3" width="84.1" height="35.2" fill="none" stroke="none"/>
<text x="77.8" y="642" text-anchor="start" xml:space="preserve" font-family="&quot;Segoe UI&quot;, &quot;Microsoft YaHei&quot;, sans-serif" font-size="22" fill="#E8ECFF" font-weight="bold"><tspan fill="#E8ECFF" font-size="22" font-weight="bold">记忆层</tspan></text>
</g>
<g id="shape-96" data-name="Group 96">
<g id="shape-91" data-name="Rectangle 91">
<rect x="246" y="536" width="320" height="120" rx="14" ry="14" fill="url(#ggrad25)" stroke-width="1" stroke="#FFFFFF" stroke-opacity="0.14"/>
</g>
<g id="shape-92" data-name="Rectangle 92">
<rect x="264" y="537" width="284" height="1" fill="url(#ggrad26)" stroke="none"/>
</g>
<g id="shape-93" data-name="TextBox 93">
<rect x="264.2" y="558.7" width="112.27" height="28.8" fill="none" stroke="none"/>
<text x="264.2" y="574" text-anchor="start" xml:space="preserve" font-family="&quot;Segoe UI&quot;, &quot;Microsoft YaHei&quot;, sans-serif" font-size="18" fill="#E8ECFF" font-weight="bold"><tspan fill="#E8ECFF" font-size="18" font-weight="bold">短期上下文</tspan></text>
</g>
<g id="shape-94" data-name="TextBox 94">
<rect x="264.6" y="590.1" width="182.31" height="22.4" fill="none" stroke="none"/>
<text x="264.6" y="602" text-anchor="start" xml:space="preserve" font-family="&quot;Segoe UI&quot;, &quot;Microsoft YaHei&quot;, sans-serif" font-size="14" fill="#A8B0D0"><tspan fill="#A8B0D0" font-size="14">当前对话 / 当前任务窗口</tspan></text>
</g>
<g id="shape-95" data-name="TextBox 95">
<rect x="264.6" y="612.1" width="115.5" height="22.4" fill="none" stroke="none"/>
<text x="264.6" y="624" text-anchor="start" xml:space="preserve" font-family="&quot;Segoe UI&quot;, &quot;Microsoft YaHei&quot;, sans-serif" font-size="14" fill="#A8B0D0"><tspan fill="#A8B0D0" font-size="14">滚动摘要防溢出</tspan></text>
</g>
</g>
<g id="shape-102" data-name="Group 102">
<g id="shape-97" data-name="Rectangle 97">
<rect x="578" y="536" width="320" height="120" rx="14" ry="14" fill="url(#ggrad27)" stroke-width="1" stroke="#FFFFFF" stroke-opacity="0.14"/>
</g>
<g id="shape-98" data-name="Rectangle 98">
<rect x="596" y="537" width="284" height="1" fill="url(#ggrad28)" stroke="none"/>
</g>
<g id="shape-99" data-name="TextBox 99">
<rect x="596.2" y="558.7" width="112.27" height="28.8" fill="none" stroke="none"/>
<text x="596.2" y="574" text-anchor="start" xml:space="preserve" font-family="&quot;Segoe UI&quot;, &quot;Microsoft YaHei&quot;, sans-serif" font-size="18" fill="#E8ECFF" font-weight="bold"><tspan fill="#E8ECFF" font-size="18" font-weight="bold">长期向量库</tspan></text>
</g>
<g id="shape-100" data-name="TextBox 100">
<rect x="596.6" y="590.1" width="198.42" height="22.4" fill="none" stroke="none"/>
<text x="596.6" y="602" text-anchor="start" xml:space="preserve" font-family="&quot;Segoe UI&quot;, &quot;Microsoft YaHei&quot;, sans-serif" font-size="14" fill="#A8B0D0"><tspan fill="#A8B0D0" font-size="14">用户偏好 / 历史知识 / FAQ</tspan></text>
</g>
<g id="shape-101" data-name="TextBox 101">
<rect x="596.6" y="612.1" width="150.11" height="22.4" fill="none" stroke="none"/>
<text x="596.6" y="624" text-anchor="start" xml:space="preserve" font-family="&quot;Segoe UI&quot;, &quot;Microsoft YaHei&quot;, sans-serif" font-size="14" fill="#A8B0D0"><tspan fill="#A8B0D0" font-size="14">语义 + 元数据双索引</tspan></text>
</g>
</g>
<g id="shape-108" data-name="Group 108">
<g id="shape-103" data-name="Rectangle 103">
<rect x="910" y="536" width="310" height="120" rx="14" ry="14" fill="url(#ggrad29)" stroke-width="1" stroke="#FFFFFF" stroke-opacity="0.14"/>
</g>
<g id="shape-104" data-name="Rectangle 104">
<rect x="928" y="537" width="274" height="1" fill="url(#ggrad30)" stroke="none"/>
</g>
<g id="shape-105" data-name="TextBox 105">
<rect x="928.2" y="558.7" width="112.27" height="28.8" fill="none" stroke="none"/>
<text x="928.2" y="574" text-anchor="start" xml:space="preserve" font-family="&quot;Segoe UI&quot;, &quot;Microsoft YaHei&quot;, sans-serif" font-size="18" fill="#E8ECFF" font-weight="bold"><tspan fill="#E8ECFF" font-size="18" font-weight="bold">任务级缓存</tspan></text>
</g>
<g id="shape-106" data-name="TextBox 106">
<rect x="928.6" y="590.1" width="182.31" height="22.4" fill="none" stroke="none"/>
<text x="928.6" y="602" text-anchor="start" xml:space="preserve" font-family="&quot;Segoe UI&quot;, &quot;Microsoft YaHei&quot;, sans-serif" font-size="14" fill="#A8B0D0"><tspan fill="#A8B0D0" font-size="14">中间检索 / 工具调用结果</tspan></text>
</g>
<g id="shape-107" data-name="TextBox 107">
<rect x="928.6" y="612.1" width="182.31" height="22.4" fill="none" stroke="none"/>
<text x="928.6" y="624" text-anchor="start" xml:space="preserve" font-family="&quot;Segoe UI&quot;, &quot;Microsoft YaHei&quot;, sans-serif" font-size="14" fill="#A8B0D0"><tspan fill="#A8B0D0" font-size="14">避免重复计算 · 降本利器</tspan></text>
</g>
</g>
</g>
<g id="shape-112" data-name="Group 112">
<g id="shape-110" data-name="TextBox 110">
<rect x="58.7" y="682.95" width="113.27" height="20.8" fill="none" stroke="none"/>
<text x="58.7" y="694" text-anchor="start" xml:space="preserve" font-family="&quot;Segoe UI&quot;, &quot;Microsoft YaHei&quot;, sans-serif" font-size="13" fill="#6B7299" font-weight="bold"><tspan fill="#6B7299" font-size="13" font-weight="bold">Agent 四层骨架</tspan></text>
</g>
<g id="shape-111" data-name="TextBox 111">
<rect x="1170.04" y="682.95" width="51.26" height="20.8" fill="none" stroke="none"/>
<text x="1221.3" y="694" text-anchor="end" xml:space="preserve" font-family="&quot;Segoe UI&quot;, &quot;Microsoft YaHei&quot;, sans-serif" font-size="13" fill="#6B7299" font-weight="bold"><tspan fill="#6B7299" font-size="13" font-weight="bold">04 / 12</tspan></text>
</g>
</g></svg>